# xmcd
#
# Track frame offsets: 
#        150
#        7703
#        14903
#        22706
#        37099
#        41903
#        53074
#        73293
#        82430
#        142627
#        158706
#        166751
#        179935
#
# Disc length: 2837 seconds
#
# Revision: 10
# Processed by: cddbd v1.5.2PL0 Copyright (c) Steve Scherf et al.
# Submitted via: ExactAudioCopy v0.99pb4
#
DISCID=ac0b130d
DTITLE=MESHUGGAH - Catch Thirtythree
DYEAR=2005
DGENRE=Tech/Extreme Prog Metal
TTITLE0=Autonomy Lost
TTITLE1=Imprint Of The Un-saved
TTITLE2=Disenchantment
TTITLE3=The Paradoxical Spiral
TTITLE4=Re-inanimate
TTITLE5=Entrapment
TTITLE6=Mind's Mirrors
TTITLE7=In Death - Is Life
TTITLE8=In Death - Is Death
TTITLE9=Shed
TTITLE10=Personae Non Gratae
TTITLE11=Dehumanization
TTITLE12=Sum
EXTD=
EXTT0=
EXTT1=
EXTT2=
EXTT3=
EXTT4=
EXTT5=
EXTT6=
EXTT7=
EXTT8=
EXTT9=
EXTT10=
EXTT11=
EXTT12=
PLAYORDER=
